<mxfile host="app.diagrams.net" modified="2024-02-01T22:11:55.593Z" agent="Mozilla/5.0 (Windows NT 10.0; Win64; x64) AppleWebKit/537.36 (KHTML, like Gecko) Chrome/121.0.0.0 Safari/537.36 Edg/121.0.0.0" version="23.1.1" etag="FnTmCsqnMlr136m1ZTqW" type="github">
  <diagram name="PÃ¡gina-1" id="cMfaFuawC3Sw3RDGa3f2">
    <mxGraphModel>
      <root>
        <mxCell id="0" />
        <mxCell id="1" parent="0" />
      </root>
    </mxGraphModel>
  </diagram>
</mxfile>
